<?xml version="1.0" encoding="UTF-8"?>
<svg viewBox="0 0 59 11" version="1.1" xmlns="http://www.w3.org/2000/svg" xmlns:xlink="http://www.w3.org/1999/xlink">
    <title>Star/rate2.5</title>
    <g id="Star/rate2.5" stroke="none" stroke-width="1" fill="none" fill-rule="evenodd">
        <g id="Star1" fill="#F4C14F">
            <polygon id="Path" points="5.25262125 8.16226025 1.98172644 10.6355285 3.20199716 6.65235348 0 4.11937025 3.98230313 4.11937025 5.5 -1.47597608e-16 7.01769687 4.11937025 11 4.11937025 7.79800284 6.65235348 9.01827356 10.6355285 5.74737875 8.16226025 5.5 7.97929391"></polygon>
        </g>
        <g id="Star2" transform="translate(12.000000, 0.000000)" fill="#F4C14F">
            <polygon id="Path" points="5.25262125 8.16226025 1.98172644 10.6355285 3.20199716 6.65235348 0 4.11937025 3.98230313 4.11937025 5.5 -1.47597608e-16 7.01769687 4.11937025 11 4.11937025 7.79800284 6.65235348 9.01827356 10.6355285 5.74737875 8.16226025 5.5 7.97929391"></polygon>
        </g>
        <g id="Star3" transform="translate(36.000000, 0.000000)" fill="#D6D6D6">
            <polygon id="Path" points="5.25262125 8.16226025 1.98172644 10.6355285 3.20199716 6.65235348 0 4.11937025 3.98230313 4.11937025 5.5 -1.47597608e-16 7.01769687 4.11937025 11 4.11937025 7.79800284 6.65235348 9.01827356 10.6355285 5.74737875 8.16226025 5.5 7.97929391"></polygon>
        </g>
        <g id="Star4" transform="translate(48.000000, 0.000000)" fill="#D6D6D6">
            <polygon id="Path" points="5.25262125 8.16226025 1.98172644 10.6355285 3.20199716 6.65235348 0 4.11937025 3.98230313 4.11937025 5.5 -1.47597608e-16 7.01769687 4.11937025 11 4.11937025 7.79800284 6.65235348 9.01827356 10.6355285 5.74737875 8.16226025 5.5 7.97929391"></polygon>
        </g>
        <g id="Star3" transform="translate(24.000000, 0.000000)">
            <polygon id="Path" fill="#F4C14F" points="5.25262125 8.16226025 1.98172644 10.6355285 3.20199716 6.65235348 0 4.11937025 3.98230313 4.11937025 5.5 -1.47597608e-16 5.5 7.97929391"></polygon>
            <polygon id="Path-Copy" fill="#D6D6D6" transform="translate(8.250000, 5.317764) scale(-1, 1) translate(-8.250000, -5.317764) " points="10.7526213 8.16226025 7.48172644 10.6355285 8.70199716 6.65235348 5.5 4.11937025 9.48230313 4.11937025 11 -1.47597608e-16 11 7.97929391"></polygon>
        </g>
    </g>
</svg>
